<svg xmlns="http://www.w3.org/2000/svg" viewBox="0 0 400 520"><defs><linearGradient id="bg" x1="0" y1="0" x2="1" y2="1"><stop stop-color="#c8dfdf"/><stop offset="1" stop-color="#829fa9"/></linearGradient></defs><rect width="400" height="520" fill="url(#bg)"/><circle cx="200" cy="180" r="86" fill="#c48d69"/><path d="M111 157c-2-68 35-111 90-111 61 0 96 45 88 112l-22-24-16-38-59 24-53-7z" fill="#4a3428"/><path d="M143 217q57 60 114 0l-10 40q-47 43-94 0z" fill="#5b382a"/><path d="M63 520c10-120 61-184 137-184s127 64 137 184" fill="#365c68"/><ellipse cx="169" cy="181" rx="8" ry="5" fill="#2e2926"/><ellipse cx="231" cy="181" rx="8" ry="5" fill="#2e2926"/><path d="M179 238q21 13 42 0" fill="none" stroke="#713f30" stroke-width="6" stroke-linecap="round"/></svg>